<mxfile host="app.diagrams.net" modified="2023-09-26T19:55:43.821Z" agent="Mozilla/5.0 (Windows NT 10.0; Win64; x64; rv:109.0) Gecko/20100101 Firefox/117.0" version="21.8.2" etag="GBhr_WvGqFxNRqIgTKCB" type="github">
  <diagram name="Page-1" id="QmC8K8JkWBMXQPX-RTZw">
    <mxGraphModel>
      <root>
        <mxCell id="0" />
        <mxCell id="1" parent="0" />
      </root>
    </mxGraphModel>
  </diagram>
</mxfile>
